<?xml version="1.0" encoding="utf-8"?>
<!-- Generator: Adobe Illustrator 22.0.1, SVG Export Plug-In . SVG Version: 6.00 Build 0)  -->
<svg version="1.1" id="Layer_1" xmlns="http://www.w3.org/2000/svg" xmlns:xlink="http://www.w3.org/1999/xlink" x="0px" y="0px"
	 viewBox="0 0 3.9 8.4" style="enable-background:new 0 0 3.9 8.4;" xml:space="preserve">
<style type="text/css">
	.st0{fill:#FFFFFF;}
</style>
<g>
	<path id="sign1"  class="st0" d="M1.9,8C1.1,8,0.4,7.3,0.4,6.4c0-0.6,0.8-3.3,1.6-5.3c0.7,2.1,1.6,4.7,1.6,5.3C3.5,7.3,2.8,8,1.9,8z"/>
	<path id="sign2"  d="M1.9,2.3c0.7,2,1.2,3.7,1.2,4.2c0,0.7-0.5,1.2-1.2,1.2c-0.7,0-1.2-0.5-1.2-1.2C0.7,6,1.3,4.2,1.9,2.3 M1.9,0
		C1.9,0,0,5.4,0,6.4s0.9,1.9,1.9,1.9s1.9-0.9,1.9-1.9S1.9,0,1.9,0L1.9,0z"/>
</g>
</svg>
